[size=3]
Format: AVI
Format/Info: Audio Video Interleave
File size: 791 MiB
Duration: 1h 15mn
Overall bit rate: 1 460 Kbps
Writing library: VirtualDub build 30091/release

Video

Format: MPEG-4 Visual
Format profile: Advanced Simple@L5
Format settings, BVOP: Yes
Format settings, QPel: No
Format settings, GMC: No warppoints
Format settings, Matrix: Default (H.263)
Muxing mode: Packed bitstream
Codec ID: XVID
Codec ID/Hint: XviD
Duration: 1h 15mn
Bit rate: 1 288 Kbps
Width: 704 pixels
Height: 320 pixels
Display aspect ratio: 2.2:1
Frame rate: 30.000 fps
Color space: YUV
Chroma subsampling: 4:2:0
Bit depth: 8 bits
Scan type: Progressive
Bits/(Pixel*Frame): 0.191
Stream size: 698 MiB (88%)
Writing library: XviD 1.2.1 (UTC 2008-12-04)

Audio

Format: MPEG Audio
Format version: Version 2
Format profile: Layer 3
Mode: Joint stereo
Mode extension: MS Stereo
Codec ID: 55
Codec ID/Hint: MP3
Duration: 1h 15mn
Bit rate mode: Constant
Bit rate: 160 Kbps
Channel(s): 2 channels
Sampling rate: 22.05 KHz
Stream size: 86.7 MiB (11%)
Alignment: Split accross interleaves
Interleave, duration: 33 ms (1.00 video frame)
Interleave, preload duration: 500 ms
Writing library: LAME3.98r

IMDB http://www.imdb.com/title/tt1314655/

CAST

Chris Messina ... Detective Bowden
Logan Marshall-Green ... Mechanic
Jenny O'Hara ... Old Woman
Bojana Novakovic ... Young Woman
Bokeem Woodbine ... Guard
Geoffrey Arend ... Salesman
Jacob Vargas ... Ramirez
Matt Craven ... Lustig
Joshua Peace ... Detective Markowitz
Caroline Dhavernas ... Elsa Nahai
Joe Cobden ... Dwight
Zoie Palmer ... Cheryl
Vincent Laresca ... Henry
Rudy Webb ... Old Janitor
Craig Eldridge ... Donnelly


PLOT

A group of people trapped in an elevator realize that the devil is among them

Note

Video: Our own source
Audio: Our own source
Its a cam...Take it or leave it
Enjoy!